<?xml version="1.0" standalone="no"?>
<!DOCTYPE svg PUBLIC "-//W3C//DTD SVG 20010904//EN"
 "http://www.w3.org/TR/2001/REC-SVG-20010904/DTD/svg10.dtd">
<svg version="1.0" xmlns="http://www.w3.org/2000/svg"
 width="225.000000pt" height="225.000000pt" viewBox="0 0 225.000000 225.000000"
 preserveAspectRatio="xMidYMid meet">
<metadata>
Created by potrace 1.11, written by Peter Selinger 2001-2013
</metadata>
<g transform="translate(0.000000,225.000000) scale(0.100000,-0.100000)"
fill="#000000" stroke="none">
<path d="M1015 1866 c-16 -8 -45 -25 -62 -38 -32 -24 -35 -25 -85 -11 -91 23
-210 -16 -253 -84 -14 -21 -31 -33 -55 -38 -110 -21 -218 -142 -195 -216 5
-16 -3 -29 -33 -55 -66 -56 -75 -118 -31 -206 11 -21 30 -45 44 -54 15 -10 25
-26 25 -40 0 -98 111 -184 217 -169 36 5 39 4 65 -39 14 -25 46 -57 69 -73 37
-24 53 -28 118 -29 96 -1 174 -36 246 -108 76 -76 103 -116 140 -208 39 -92
71 -128 116 -128 69 0 98 45 106 160 l6 78 76 4 c156 10 260 97 291 245 8 36
18 53 41 68 35 24 72 94 68 132 -1 16 7 43 18 61 27 44 37 128 23 196 -9 43
-19 62 -48 87 -20 18 -38 44 -40 58 -12 89 -126 190 -214 191 -20 0 -32 8 -42
28 -18 34 -62 75 -104 96 -40 21 -148 31 -182 18 -22 -8 -31 -4 -66 28 -23 21
-59 43 -80 49 -53 15 -143 13 -179 -3z m166 -36 c19 -5 47 -22 62 -38 l27 -28
-25 -48 c-14 -27 -25 -54 -25 -60 0 -6 -14 -19 -30 -28 -30 -17 -41 -48 -17
-48 6 0 34 11 61 25 78 39 151 29 207 -31 12 -13 31 -24 42 -24 10 0 34 -15
53 -34 30 -30 34 -40 34 -88 0 -68 -18 -94 -77 -111 -39 -11 -48 -19 -57 -47
-13 -40 -66 -80 -106 -80 -15 0 -49 11 -76 25 -27 14 -54 23 -60 21 -5 -2 -16
-22 -22 -44 -16 -53 -72 -102 -115 -102 -18 0 -57 12 -86 26 -36 18 -56 23
-63 16 -16 -16 0 -32 56 -58 65 -31 123 -31 167 -1 30 20 72 71 81 99 3 8 19
5 51 -7 84 -32 176 2 209 75 8 18 23 33 38 37 106 26 142 170 65 261 -14 17
-25 32 -25 36 0 3 14 13 32 22 69 36 181 -4 235 -85 33 -49 30 -71 -9 -71 -41
0 -63 -13 -55 -33 4 -12 15 -14 40 -10 49 8 105 -13 121 -45 7 -15 16 -45 19
-67 9 -65 -16 -178 -30 -138 -3 7 -13 23 -23 35 -15 18 -21 20 -31 11 -10 -10
-9 -20 8 -50 32 -58 37 -97 18 -137 -34 -72 -125 -96 -212 -57 l-41 19 13 39
c8 21 14 44 15 52 0 8 18 30 40 49 69 58 102 152 58 160 -13 3 -18 -3 -18 -21
0 -25 -40 -92 -69 -115 -11 -8 -41 -12 -90 -10 -52 2 -75 -1 -78 -9 -6 -16 37
-33 83 -33 39 0 39 -1 19 -62 -28 -81 -104 -128 -205 -128 -57 0 -99 29 -120
82 -20 49 -30 60 -46 47 -10 -8 -10 -18 2 -50 16 -48 5 -80 -46 -123 -57 -47
-133 -55 -202 -20 -34 18 -34 19 -3 56 26 30 33 68 14 68 -6 0 -29 -21 -52
-46 -33 -36 -50 -47 -83 -51 -88 -11 -181 62 -192 152 -4 43 -2 47 39 89 24
23 50 45 58 47 11 4 12 11 2 42 -15 46 -7 89 25 127 39 45 80 54 161 34 38 -9
68 -13 70 -7 37 111 150 154 245 94 25 -16 49 -34 52 -40 10 -16 46 -13 46 3
0 8 -14 26 -31 41 -117 98 -253 84 -329 -33 -14 -22 -18 -23 -65 -12 -27 6
-67 8 -88 5 -78 -14 -146 -110 -134 -192 4 -34 1 -41 -34 -71 -21 -19 -43 -31
-49 -27 -19 12 -50 84 -50 116 0 23 10 42 40 72 40 40 42 46 18 79 -29 41 30
109 97 111 32 1 41 7 62 39 31 51 63 65 111 51 20 -5 43 -12 51 -14 8 -2 17 4
19 14 5 25 -60 50 -116 44 -44 -5 -87 -34 -97 -68 -4 -12 -21 -20 -52 -25 -32
-5 -57 -17 -82 -40 -34 -30 -36 -37 -36 -92 0 -41 -6 -66 -16 -79 -28 -31 -39
-60 -39 -99 0 -44 34 -120 61 -137 12 -7 19 -23 19 -43 0 -28 -4 -32 -35 -37
-67 -11 -132 21 -159 78 -20 41 -15 65 21 113 39 52 11 73 -33 25 -29 -32 -47
-26 -78 26 -29 51 -26 104 9 141 35 36 42 37 67 5 11 -14 26 -25 34 -25 17 0
19 36 3 46 -6 3 -20 26 -31 51 -19 44 -19 44 2 87 22 46 75 90 122 101 27 7
28 6 28 -35 0 -34 3 -41 17 -38 12 2 20 17 25 45 18 106 87 163 197 163 61 0
92 -11 142 -51 56 -44 84 -21 32 27 -30 28 -32 25 27 58 49 28 108 33 171 16z
m327 -94 c56 -29 105 -96 70 -96 -6 0 -27 -12 -46 -27 -23 -17 -39 -23 -47
-17 -77 58 -100 68 -156 72 -32 2 -59 7 -59 11 0 17 36 54 64 67 37 17 132 12
174 -10z m143 -826 c24 -11 64 -20 88 -20 l44 0 -6 -36 c-9 -57 -54 -123 -105
-155 -129 -82 -285 -59 -414 60 l-52 48 26 31 c14 17 28 36 30 43 2 7 15 4 38
-10 65 -39 225 -16 275 39 22 25 23 25 76 0z m-302 -263 l64 -30 -6 -77 c-6
-90 -18 -117 -54 -126 -34 -9 -64 24 -88 98 -22 65 -68 138 -127 201 -37 39
-42 50 -29 54 9 2 25 8 36 12 16 7 32 -3 80 -47 33 -30 88 -69 124 -85z"/>
</g>
</svg>
